<svg width="1200" height="630" viewBox="0 0 1200 630" fill="none" xmlns="http://www.w3.org/2000/svg">
  <rect width="1200" height="630" fill="#0A0A0A"/>
  <rect x="38" y="38" width="1124" height="554" rx="28" fill="#101010" stroke="#2A2A2A" stroke-width="2"/>
  <path d="M0 520C170 450 360 585 561 520C757 457 963 590 1200 510V630H0V520Z" fill="#141414"/>
  <path d="M0 560C200 500 395 615 621 565C823 520 996 615 1200 575V630H0V560Z" fill="#1A1A1A"/>
  <text x="88" y="180" fill="#F2F2F2" font-family="'Space Grotesk', sans-serif" font-size="112" font-weight="700" letter-spacing="-4">Sakthivel</text>
  <text x="92" y="250" fill="#9A9A9A" font-family="Inter, sans-serif" font-size="28" font-weight="500" letter-spacing="8">AI-NATIVE ENGINEER</text>
  <text x="92" y="356" fill="#D8D8D8" font-family="Inter, sans-serif" font-size="34" font-weight="400">I design and ship complex software</text>
  <text x="92" y="402" fill="#D8D8D8" font-family="Inter, sans-serif" font-size="34" font-weight="400">by collapsing ideas directly into production.</text>
  <rect x="92" y="468" width="320" height="54" rx="27" fill="#F2F2F2"/>
  <text x="120" y="503" fill="#0A0A0A" font-family="'Space Grotesk', sans-serif" font-size="22" font-weight="700" letter-spacing="4">sakthivel.daeq.in</text>
</svg><svg xmlns="http://www.w3.org/2000/svg" viewBox="0 0 1200 630" role="img" aria-label="Sakthivel portfolio social card">
  <defs>
    <linearGradient id="g" x1="0" y1="0" x2="1" y2="1">
      <stop offset="0%" stop-color="#0a0a0a"/>
      <stop offset="100%" stop-color="#1a1a1a"/>
    </linearGradient>
  </defs>
  <rect width="1200" height="630" fill="url(#g)"/>
  <text x="120" y="270" fill="#f5f5f5" font-family="'Space Grotesk', Arial, sans-serif" font-size="172" font-weight="700" letter-spacing="-4">S.</text>
  <text x="120" y="370" fill="#d4d4d4" font-family="Inter, Arial, sans-serif" font-size="46" font-weight="500">Sakthivel — AI-Native Engineer</text>
  <text x="120" y="430" fill="#9b9b9b" font-family="Inter, Arial, sans-serif" font-size="30" font-weight="400">Designing and shipping complex software into production.</text>
</svg>
